<svg xmlns="http://www.w3.org/2000/svg" width="1024" height="1024"><path d="M487.937 1.061c-68.394 3.111-135.465 20.24-197.811 50.517-53.414 25.941-96.246 56.491-138.651 98.897-42.406 42.405-72.956 85.237-98.897 138.651C-5.405 408.523-14.411 544.661 27.183 673c8.66 26.72 26.838 67.405 41.495 92.874C103.224 825.9 151.175 880.054 207 922.089c47.584 35.829 106.632 65.084 165.336 81.913 81.853 23.466 172.717 25.777 255.828 6.507 38.803-8.997 71.927-20.71 107.71-38.087 53.414-25.941 96.246-56.491 138.651-98.897 42.406-42.405 72.956-85.237 98.897-138.651 25.674-52.867 40.679-104.711 48.299-166.874 2.575-21.001 2.575-90.999 0-112-7.878-64.273-23.983-118.614-51.339-173.236-25.001-49.918-55.299-91.732-95.857-132.289-42.405-42.406-85.237-72.956-138.651-98.897C672.291 20.7 607.669 4.399 535.469 1.024c-22.83-1.067-23.28-1.067-47.532.037" fill="undefined" fill-rule="evenodd"/></svg>